<?xml version="1.0" standalone="no"?>
<!DOCTYPE svg PUBLIC "-//W3C//DTD SVG 1.1//EN"
"http://www.w3.org/Graphics/SVG/1.1/DTD/svg11.dtd">

<svg width="733" height="431" view_box="0 0 733 431"
xmlns="http://www.w3.org/2000/svg"
xmlns:link="http://www.w3.org/1999/xlink">\n\n<desc>Généré par Mocodo 2.3.7 le Mon, 13 Dec 2021 06:31:20</desc>

<rect id="frame" x="0" y="0" width="733" height="431" fill="#f7f7f7" stroke="none" stroke-width="0"/>

<!-- Association illustre_maquette -->
<line x1="512" y1="144" x2="377" y2="43" stroke="#5aae61" stroke-width="2"/>
<text x="455" y="132.910497613" fill="#762a83" font-family="Verdana" font-size="12">0,N</text>
<line x1="213" y1="43" x2="377" y2="43" stroke="#5aae61" stroke-width="2"/>
<text x="289" y="60.0" fill="#762a83" font-family="Verdana" font-size="12">0,N</text>
<g id="association-illustre_maquette">
	<path d="M 424 18 a 14 14 90 0 1 14 14 V 43 h -122 V 32 a 14 14 90 0 1 14 -14" fill="#a6dba0" stroke="#a6dba0" stroke-width="0"/>
	<path d="M 438 43.0 v 11 a 14 14 90 0 1 -14 14 H 330 a 14 14 90 0 1 -14 -14 V 43.0 H 122" fill="#d9f0d3" stroke="#d9f0d3" stroke-width="0"/>
	<rect x="316" y="18" width="122" height="50" fill="none" rx="14" stroke="#5aae61" stroke-width="2"/>
	<line x1="316" y1="43" x2="438" y2="43" stroke="#5aae61" stroke-width="1"/>
	<text x="323" y="35.7" fill="#000000" font-family="Verdana" font-size="12">illustre_maquette</text>
</g>

<!-- Association figure_maquette -->
<line x1="512" y1="144" x2="512" y2="270" stroke="#5aae61" stroke-width="2"/>
<text x="517.0" y="186" fill="#762a83" font-family="Verdana" font-size="12">0,N</text>
<line x1="512" y1="388" x2="512" y2="270" stroke="#5aae61" stroke-width="2"/>
<text x="517.0" y="346" fill="#762a83" font-family="Verdana" font-size="12">0,N</text>
<g id="association-figure_maquette">
	<path d="M 556 245 a 14 14 90 0 1 14 14 V 270 h -116 V 259 a 14 14 90 0 1 14 -14" fill="#a6dba0" stroke="#a6dba0" stroke-width="0"/>
	<path d="M 570 270.0 v 11 a 14 14 90 0 1 -14 14 H 468 a 14 14 90 0 1 -14 -14 V 270.0 H 116" fill="#d9f0d3" stroke="#d9f0d3" stroke-width="0"/>
	<rect x="454" y="245" width="116" height="50" fill="none" rx="14" stroke="#5aae61" stroke-width="2"/>
	<line x1="454" y1="270" x2="570" y2="270" stroke="#5aae61" stroke-width="1"/>
	<text x="461" y="262.7" fill="#000000" font-family="Verdana" font-size="12">figure_maquette</text>
</g>

<!-- Association figure -->
<line x1="512" y1="144" x2="377" y2="144" stroke="#5aae61" stroke-width="2"/>
<text x="455" y="161.0" fill="#762a83" font-family="Verdana" font-size="12">1,N</text>
<line x1="213" y1="270" x2="377" y2="144" stroke="#5aae61" stroke-width="2"/>
<text x="262" y="247.423347807" fill="#762a83" font-family="Verdana" font-size="12">0,1</text>
<g id="association-figure">
	<path d="M 404 119 a 14 14 90 0 1 14 14 V 144 h -82 V 133 a 14 14 90 0 1 14 -14" fill="#a6dba0" stroke="#a6dba0" stroke-width="0"/>
	<path d="M 418 144.0 v 11 a 14 14 90 0 1 -14 14 H 350 a 14 14 90 0 1 -14 -14 V 144.0 H 82" fill="#d9f0d3" stroke="#d9f0d3" stroke-width="0"/>
	<rect x="336" y="119" width="82" height="50" fill="none" rx="14" stroke="#5aae61" stroke-width="2"/>
	<line x1="336" y1="144" x2="418" y2="144" stroke="#5aae61" stroke-width="1"/>
	<text x="359" y="136.7" fill="#000000" font-family="Verdana" font-size="12">figure</text>
	<text x="343" y="161.8" fill="#000000" font-family="Verdana" font-size="12">en_attente</text>
</g>

<!-- Association illustre_article -->
<line x1="70" y1="388" x2="213" y2="388" stroke="#5aae61" stroke-width="2"/>
<text x="136" y="405.0" fill="#762a83" font-family="Verdana" font-size="12">0,N</text>
<line x1="213" y1="270" x2="213" y2="388" stroke="#5aae61" stroke-width="2"/>
<text x="186.0" y="355" fill="#762a83" font-family="Verdana" font-size="12">0,N</text>
<g id="association-illustre_article">
	<path d="M 249 363 a 14 14 90 0 1 14 14 V 388 h -100 V 377 a 14 14 90 0 1 14 -14" fill="#a6dba0" stroke="#a6dba0" stroke-width="0"/>
	<path d="M 263 388.0 v 11 a 14 14 90 0 1 -14 14 H 177 a 14 14 90 0 1 -14 -14 V 388.0 H 100" fill="#d9f0d3" stroke="#d9f0d3" stroke-width="0"/>
	<rect x="163" y="363" width="100" height="50" fill="none" rx="14" stroke="#5aae61" stroke-width="2"/>
	<line x1="163" y1="388" x2="263" y2="388" stroke="#5aae61" stroke-width="1"/>
	<text x="170" y="380.7" fill="#000000" font-family="Verdana" font-size="12">illustre_article</text>
</g>

<!-- Association ecrit -->
<line x1="70" y1="144" x2="70" y2="270" stroke="#5aae61" stroke-width="2"/>
<text x="75.0" y="237" fill="#762a83" font-family="Verdana" font-size="12">0,N</text>
<line x1="213" y1="270" x2="70" y2="270" stroke="#5aae61" stroke-width="2"/>
<text x="143" y="287.0" fill="#762a83" font-family="Verdana" font-size="12">1,1</text>
<g id="association-ecrit">
	<path d="M 77 245 a 14 14 90 0 1 14 14 V 270 h -42 V 259 a 14 14 90 0 1 14 -14" fill="#a6dba0" stroke="#a6dba0" stroke-width="0"/>
	<path d="M 91 270.0 v 11 a 14 14 90 0 1 -14 14 H 63 a 14 14 90 0 1 -14 -14 V 270.0 H 42" fill="#d9f0d3" stroke="#d9f0d3" stroke-width="0"/>
	<rect x="49" y="245" width="42" height="50" fill="none" rx="14" stroke="#5aae61" stroke-width="2"/>
	<line x1="49" y1="270" x2="91" y2="270" stroke="#5aae61" stroke-width="1"/>
	<text x="56" y="262.7" fill="#000000" font-family="Verdana" font-size="12">ecrit</text>
</g>

<!-- Association choisi -->
<line x1="512" y1="144" x2="663" y2="144" stroke="#5aae61" stroke-width="2"/>
<text x="547" y="161.0" fill="#762a83" font-family="Verdana" font-size="12">0,N</text>
<line x1="663" y1="270" x2="663" y2="144" stroke="#5aae61" stroke-width="2"/>
<text x="668.0" y="220" fill="#762a83" font-family="Verdana" font-size="12">0,1</text>
<g id="association-choisi">
	<path d="M 674 119 a 14 14 90 0 1 14 14 V 144 h -50 V 133 a 14 14 90 0 1 14 -14" fill="#a6dba0" stroke="#a6dba0" stroke-width="0"/>
	<path d="M 688 144.0 v 11 a 14 14 90 0 1 -14 14 H 652 a 14 14 90 0 1 -14 -14 V 144.0 H 50" fill="#d9f0d3" stroke="#d9f0d3" stroke-width="0"/>
	<rect x="638" y="119" width="50" height="50" fill="none" rx="14" stroke="#5aae61" stroke-width="2"/>
	<line x1="638" y1="144" x2="688" y2="144" stroke="#5aae61" stroke-width="1"/>
	<text x="645" y="136.7" fill="#000000" font-family="Verdana" font-size="12">choisi</text>
</g>

<!-- Association mise_en_page -->
<line x1="70" y1="144" x2="213" y2="144" stroke="#5aae61" stroke-width="2"/>
<text x="109" y="161.0" fill="#762a83" font-family="Verdana" font-size="12">0,N</text>
<line x1="213" y1="270" x2="213" y2="144" stroke="#5aae61" stroke-width="2"/>
<text x="187.0" y="194" fill="#762a83" font-family="Verdana" font-size="12">1,1</text>
<g id="association-mise_en_page">
	<path d="M 251 119 a 14 14 90 0 1 14 14 V 144 h -104 V 133 a 14 14 90 0 1 14 -14" fill="#a6dba0" stroke="#a6dba0" stroke-width="0"/>
	<path d="M 265 144.0 v 11 a 14 14 90 0 1 -14 14 H 175 a 14 14 90 0 1 -14 -14 V 144.0 H 104" fill="#d9f0d3" stroke="#d9f0d3" stroke-width="0"/>
	<rect x="161" y="119" width="104" height="50" fill="none" rx="14" stroke="#5aae61" stroke-width="2"/>
	<line x1="161" y1="144" x2="265" y2="144" stroke="#5aae61" stroke-width="1"/>
	<text x="168" y="136.7" fill="#000000" font-family="Verdana" font-size="12">mise_en_page</text>
</g>

<!-- Association est_possible -->
<line x1="512" y1="388" x2="377" y2="270" stroke="#5aae61" stroke-width="2"/>
<text x="471.701113468" y="346" fill="#762a83" font-family="Verdana" font-size="12">0,N</text>
<line x1="213" y1="270" x2="377" y2="270" stroke="#5aae61" stroke-width="2"/>
<text x="262" y="287.0" fill="#762a83" font-family="Verdana" font-size="12">0,N</text>
<g id="association-est_possible">
	<path d="M 408 245 a 14 14 90 0 1 14 14 V 270 h -90 V 259 a 14 14 90 0 1 14 -14" fill="#a6dba0" stroke="#a6dba0" stroke-width="0"/>
	<path d="M 422 270.0 v 11 a 14 14 90 0 1 -14 14 H 346 a 14 14 90 0 1 -14 -14 V 270.0 H 90" fill="#d9f0d3" stroke="#d9f0d3" stroke-width="0"/>
	<rect x="332" y="245" width="90" height="50" fill="none" rx="14" stroke="#5aae61" stroke-width="2"/>
	<line x1="332" y1="270" x2="422" y2="270" stroke="#5aae61" stroke-width="1"/>
	<text x="339" y="262.7" fill="#000000" font-family="Verdana" font-size="12">est_possible</text>
</g>

<!-- Association apparait -->
<line x1="663" y1="43" x2="512" y2="43" stroke="#5aae61" stroke-width="2"/>
<text x="580" y="60.0" fill="#762a83" font-family="Verdana" font-size="12">1,N</text>
<line x1="512" y1="144" x2="512" y2="43" stroke="#5aae61" stroke-width="2"/>
<text x="517.0" y="111" fill="#762a83" font-family="Verdana" font-size="12">1,1</text>
<g id="association-apparait">
	<path d="M 531 18 a 14 14 90 0 1 14 14 V 43 h -66 V 32 a 14 14 90 0 1 14 -14" fill="#a6dba0" stroke="#a6dba0" stroke-width="0"/>
	<path d="M 545 43.0 v 11 a 14 14 90 0 1 -14 14 H 493 a 14 14 90 0 1 -14 -14 V 43.0 H 66" fill="#d9f0d3" stroke="#d9f0d3" stroke-width="0"/>
	<rect x="479" y="18" width="66" height="50" fill="none" rx="14" stroke="#5aae61" stroke-width="2"/>
	<line x1="479" y1="43" x2="545" y2="43" stroke="#5aae61" stroke-width="1"/>
	<text x="486" y="35.7" fill="#000000" font-family="Verdana" font-size="12">apparait</text>
</g>

<!-- Association figure_article -->
<line x1="512" y1="388" x2="377" y2="388" stroke="#5aae61" stroke-width="2"/>
<text x="437" y="405.0" fill="#762a83" font-family="Verdana" font-size="12">0,N</text>
<line x1="213" y1="270" x2="377" y2="388" stroke="#5aae61" stroke-width="2"/>
<text x="262" y="299.11962447" fill="#762a83" font-family="Verdana" font-size="12">0,N</text>
<g id="association-figure_article">
	<path d="M 411 363 a 14 14 90 0 1 14 14 V 388 h -96 V 377 a 14 14 90 0 1 14 -14" fill="#a6dba0" stroke="#a6dba0" stroke-width="0"/>
	<path d="M 425 388.0 v 11 a 14 14 90 0 1 -14 14 H 343 a 14 14 90 0 1 -14 -14 V 388.0 H 96" fill="#d9f0d3" stroke="#d9f0d3" stroke-width="0"/>
	<rect x="329" y="363" width="96" height="50" fill="none" rx="14" stroke="#5aae61" stroke-width="2"/>
	<line x1="329" y1="388" x2="425" y2="388" stroke="#5aae61" stroke-width="1"/>
	<text x="336" y="380.7" fill="#000000" font-family="Verdana" font-size="12">figure_article</text>
</g>

<!-- Entity Image_article -->
<g id="entity-Image_article">
	<g id="frame-Image_article">
		<rect x="9" y="354" width="122" height="25" fill="#c2a5cf" stroke="#c2a5cf" stroke-width="0"/>
		<rect x="9" y="379.0" width="122" height="43" fill="#e7d4e8" stroke="#e7d4e8" stroke-width="0"/>
		<rect x="9" y="354" width="122" height="68" fill="none" stroke="#9970ab" stroke-width="2"/>
		<line x1="9" y1="379" x2="131" y2="379" stroke="#9970ab" stroke-width="1"/>
	</g>
	<text x="28" y="371.7" fill="#000000" font-family="Verdana" font-size="12">Image_article</text>
	<text x="14" y="396.8" fill="#000000" font-family="Verdana" font-size="12">numImage_article</text>
	<line x1="14" y1="399" x2="125" y2="399" stroke="#000000" stroke-width="1"/>
	<text x="14" y="413.8" fill="#000000" font-family="Verdana" font-size="12">lien_image_article</text>
</g>

<!-- Entity Acteurs -->
<g id="entity-Acteurs">
	<g id="frame-Acteurs">
		<rect x="36" y="68" width="68" height="25" fill="#c2a5cf" stroke="#c2a5cf" stroke-width="0"/>
		<rect x="36" y="93.0" width="68" height="127" fill="#e7d4e8" stroke="#e7d4e8" stroke-width="0"/>
		<rect x="36" y="68" width="68" height="152" fill="none" stroke="#9970ab" stroke-width="2"/>
		<line x1="36" y1="93" x2="104" y2="93" stroke="#9970ab" stroke-width="1"/>
	</g>
	<text x="47" y="85.7" fill="#000000" font-family="Verdana" font-size="12">Acteurs</text>
	<text x="41" y="110.7" fill="#000000" font-family="Verdana" font-size="12">matricule</text>
	<line x1="41" y1="113" x2="98" y2="113" stroke="#000000" stroke-width="1"/>
	<text x="41" y="127.7" fill="#000000" font-family="Verdana" font-size="12">nom</text>
	<text x="41" y="144.8" fill="#000000" font-family="Verdana" font-size="12">prenom</text>
	<text x="41" y="161.8" fill="#000000" font-family="Verdana" font-size="12">mail</text>
	<text x="41" y="178.8" fill="#000000" font-family="Verdana" font-size="12">statut</text>
	<text x="41" y="195.8" fill="#000000" font-family="Verdana" font-size="12">role</text>
	<text x="41" y="212.8" fill="#000000" font-family="Verdana" font-size="12">notoriete</text>
</g>

<!-- Entity Version_maquette -->
<g id="entity-Version_maquette">
	<g id="frame-Version_maquette">
		<rect x="602" y="228" width="122" height="25" fill="#c2a5cf" stroke="#c2a5cf" stroke-width="0"/>
		<rect x="602" y="253.0" width="122" height="59" fill="#e7d4e8" stroke="#e7d4e8" stroke-width="0"/>
		<rect x="602" y="228" width="122" height="84" fill="none" stroke="#9970ab" stroke-width="2"/>
		<line x1="602" y1="253" x2="724" y2="253" stroke="#9970ab" stroke-width="1"/>
	</g>
	<text x="607" y="245.7" fill="#000000" font-family="Verdana" font-size="12">Version_maquette</text>
	<text x="607" y="270.8" fill="#000000" font-family="Verdana" font-size="12">numVersion</text>
	<line x1="607" y1="273" x2="680" y2="273" stroke="#000000" stroke-width="1"/>
	<text x="607" y="287.8" fill="#000000" font-family="Verdana" font-size="12">date_creation</text>
	<text x="607" y="304.8" fill="#000000" font-family="Verdana" font-size="12">lien_maquette</text>
</g>

<!-- Entity Numero -->
<g id="entity-Numero">
	<g id="frame-Numero">
		<rect x="482" y="119" width="60" height="25" fill="#c2a5cf" stroke="#c2a5cf" stroke-width="0"/>
		<rect x="482" y="144.0" width="60" height="25" fill="#e7d4e8" stroke="#e7d4e8" stroke-width="0"/>
		<rect x="482" y="119" width="60" height="50" fill="none" stroke="#9970ab" stroke-width="2"/>
		<line x1="482" y1="144" x2="542" y2="144" stroke="#9970ab" stroke-width="1"/>
	</g>
	<text x="487" y="136.7" fill="#000000" font-family="Verdana" font-size="12">Numero</text>
	<text x="487" y="161.8" fill="#000000" font-family="Verdana" font-size="12">code</text>
	<line x1="487" y1="164" x2="516" y2="164" stroke="#000000" stroke-width="1"/>
</g>

<!-- Entity Rubrique -->
<g id="entity-Rubrique">
	<g id="frame-Rubrique">
		<rect x="464" y="354" width="96" height="25" fill="#c2a5cf" stroke="#c2a5cf" stroke-width="0"/>
		<rect x="464" y="379.0" width="96" height="43" fill="#e7d4e8" stroke="#e7d4e8" stroke-width="0"/>
		<rect x="464" y="354" width="96" height="68" fill="none" stroke="#9970ab" stroke-width="2"/>
		<line x1="464" y1="379" x2="560" y2="379" stroke="#9970ab" stroke-width="1"/>
	</g>
	<text x="484" y="371.7" fill="#000000" font-family="Verdana" font-size="12">Rubrique</text>
	<text x="469" y="396.8" fill="#000000" font-family="Verdana" font-size="12">numRubrique</text>
	<line x1="469" y1="399" x2="551" y2="399" stroke="#000000" stroke-width="1"/>
	<text x="469" y="413.8" fill="#000000" font-family="Verdana" font-size="12">titre_rubrique</text>
</g>

<!-- Entity Magazine -->
<g id="entity-Magazine">
	<g id="frame-Magazine">
		<rect x="607" y="9" width="112" height="25" fill="#c2a5cf" stroke="#c2a5cf" stroke-width="0"/>
		<rect x="607" y="34.0" width="112" height="43" fill="#e7d4e8" stroke="#e7d4e8" stroke-width="0"/>
		<rect x="607" y="9" width="112" height="68" fill="none" stroke="#9970ab" stroke-width="2"/>
		<line x1="607" y1="34" x2="719" y2="34" stroke="#9970ab" stroke-width="1"/>
	</g>
	<text x="634" y="26.7" fill="#000000" font-family="Verdana" font-size="12">Magazine</text>
	<text x="612" y="51.8" fill="#000000" font-family="Verdana" font-size="12">numMagazine</text>
	<line x1="612" y1="54" x2="696" y2="54" stroke="#000000" stroke-width="1"/>
	<text x="612" y="68.8" fill="#000000" font-family="Verdana" font-size="12">date_publication</text>
</g>

<!-- Entity Image_maquette -->
<g id="entity-Image_maquette">
	<g id="frame-Image_maquette">
		<rect x="142" y="9" width="142" height="25" fill="#c2a5cf" stroke="#c2a5cf" stroke-width="0"/>
		<rect x="142" y="34.0" width="142" height="43" fill="#e7d4e8" stroke="#e7d4e8" stroke-width="0"/>
		<rect x="142" y="9" width="142" height="68" fill="none" stroke="#9970ab" stroke-width="2"/>
		<line x1="142" y1="34" x2="284" y2="34" stroke="#9970ab" stroke-width="1"/>
	</g>
	<text x="160" y="26.7" fill="#000000" font-family="Verdana" font-size="12">Image_maquette</text>
	<text x="147" y="51.8" fill="#000000" font-family="Verdana" font-size="12">numImage_maquette</text>
	<line x1="147" y1="54" x2="279" y2="54" stroke="#000000" stroke-width="1"/>
	<text x="147" y="68.8" fill="#000000" font-family="Verdana" font-size="12">lien_image_maquette</text>
</g>

<!-- Entity Article -->
<g id="entity-Article">
	<g id="frame-Article">
		<rect x="169" y="202" width="88" height="25" fill="#c2a5cf" stroke="#c2a5cf" stroke-width="0"/>
		<rect x="169" y="227.0" width="88" height="111" fill="#e7d4e8" stroke="#e7d4e8" stroke-width="0"/>
		<rect x="169" y="202" width="88" height="136" fill="none" stroke="#9970ab" stroke-width="2"/>
		<line x1="169" y1="227" x2="257" y2="227" stroke="#9970ab" stroke-width="1"/>
	</g>
	<text x="193" y="219.7" fill="#000000" font-family="Verdana" font-size="12">Article</text>
	<text x="174" y="244.7" fill="#000000" font-family="Verdana" font-size="12">numArticle</text>
	<line x1="174" y1="247" x2="240" y2="247" stroke="#000000" stroke-width="1"/>
	<text x="174" y="261.7" fill="#000000" font-family="Verdana" font-size="12">titre_article</text>
	<text x="174" y="278.8" fill="#000000" font-family="Verdana" font-size="12">chapeau</text>
	<text x="174" y="295.8" fill="#000000" font-family="Verdana" font-size="12">lien_contenu</text>
	<text x="174" y="312.8" fill="#000000" font-family="Verdana" font-size="12">cout</text>
	<text x="174" y="329.8" fill="#000000" font-family="Verdana" font-size="12">nb_feuillets</text>
</g>
</svg>